<?xml version="1.0" encoding="UTF-8" standalone="no"?>
<!-- Generator: Adobe Illustrator 18.1.1, SVG Export Plug-In . SVG Version: 6.00 Build 0)  -->

<svg
   xmlns:dc="http://purl.org/dc/elements/1.1/"
   xmlns:cc="http://creativecommons.org/ns#"
   xmlns:rdf="http://www.w3.org/1999/02/22-rdf-syntax-ns#"
   xmlns:svg="http://www.w3.org/2000/svg"
   xmlns="http://www.w3.org/2000/svg"
   xmlns:sodipodi="http://sodipodi.sourceforge.net/DTD/sodipodi-0.dtd"
   xmlns:inkscape="http://www.inkscape.org/namespaces/inkscape"
   version="1.1"
   x="0px"
   y="0px"
   viewBox="0 0 260 260"
   enable-background="new 0 0 260 260"
   xml:space="preserve"
   id="svg21"
   sodipodi:docname="bitbucket.svg"
   inkscape:version="0.92.1 r15371"><metadata
     id="metadata27"><rdf:RDF><cc:Work
         rdf:about=""><dc:format>image/svg+xml</dc:format><dc:type
           rdf:resource="http://purl.org/dc/dcmitype/StillImage" /><dc:title></dc:title></cc:Work></rdf:RDF></metadata><defs
     id="defs25" /><sodipodi:namedview
     pagecolor="#ffffff"
     bordercolor="#666666"
     borderopacity="1"
     objecttolerance="10"
     gridtolerance="10"
     guidetolerance="10"
     inkscape:pageopacity="0"
     inkscape:pageshadow="2"
     inkscape:window-width="1920"
     inkscape:window-height="1018"
     id="namedview23"
     showgrid="false"
     inkscape:zoom="0.90769231"
     inkscape:cx="130"
     inkscape:cy="-111.79444"
     inkscape:window-x="-8"
     inkscape:window-y="-8"
     inkscape:window-maximized="1"
     inkscape:current-layer="svg21" /><g
     id="g4"
     transform="matrix(0.67954864,0,0,0.64211931,43.449981,35.971518)"
     style="fill:#205081"><path
       d="M 128,0 C 57.732,0 0.012,18.822 0.012,42.663 c 0,6.274 15.057,95.364 21.331,130.498 2.51,16.312 43.918,38.898 106.657,38.898 62.74,0 102.893,-22.586 106.657,-38.898 C 240.931,138.027 255.988,48.937 255.988,42.663 254.734,18.822 198.268,0 128,0 Z m 0,183.199 c -22.586,0 -40.153,-17.567 -40.153,-40.153 0,-22.586 17.567,-40.153 40.153,-40.153 22.586,0 40.153,17.567 40.153,40.153 0,21.331 -17.567,40.153 -40.153,40.153 z m 0,-127.988 c -45.172,0 -81.561,-7.53 -81.561,-17.567 0,-10.039 36.389,-17.567 81.561,-17.567 45.172,0 81.561,7.528 81.561,17.567 0,10.038 -36.389,17.567 -81.561,17.567 z"
       id="path6"
       inkscape:connector-curvature="0" /><path
       d="m 220.608,207.04 c -2.51,0 -3.764,1.255 -3.764,1.255 0,0 -31.37,25.096 -87.835,25.096 -56.466,0 -87.835,-25.096 -87.835,-25.096 0,0 -2.51,-1.255 -3.765,-1.255 -2.51,0 -5.019,1.255 -5.019,5.02 v 1.254 c 5.02,26.35 8.784,45.172 8.784,47.682 3.764,18.822 41.408,33.88 86.58,33.88 45.172,0 82.816,-15.058 86.58,-33.88 0,-2.51 3.765,-21.332 8.784,-47.682 v -1.255 c 1.255,-2.51 0,-5.019 -2.51,-5.019 z"
       id="path8"
       inkscape:connector-curvature="0" /><circle
       cx="128"
       cy="141.791"
       r="20.077"
       id="circle10" /></g></svg>