<?xml version="1.0" encoding="utf-8"?>
<svg version="1.0" xmlns="http://www.w3.org/2000/svg" width="140px" height="166px" viewBox="0 0 1400 1660" preserveAspectRatio="xMidYMid meet">
  <g id="layer1" fill="#ffffff" stroke="none">
    <path d="M347 1160 c-39 -12 -95 -56 -117 -92 -44 -73 -32 -154 31 -223 23 -24 56 -49 75 -55 23 -8 34 -18 34 -31 0 -74 91 -133 167 -108 32 10 36 9 69 -25 40 -41 71 -59 132 -76 119 -32 261 59 294 187 8 35 18 48 47 62 89 46 133 151 100 238 -15 40 -67 92 -114 114 -36 17 -69 19 -365 18 -179 0 -338 -5 -353 -9z"/>
  </g>
  <g id="layer2" fill="#26a9e0" stroke="none">
    <path d="M583 1610 c-112 -20 -232 -83 -324 -168 -275 -254 -318 -645 -104 -930 57 -76 125 -138 276 -253 124 -95 195 -166 205 -206 8 -32 30 -29 48 6 22 42 96 103 215 178 157 97 232 156 311 240 382 409 83 1118 -480 1139 -52 1 -118 -1 -147 -6z m482 -479 c137 -63 142 -242 9 -314 -44 -23 -53 -32 -59 -64 -18 -96 -84 -163 -181 -183 -79 -17 -153 7 -213 67 -44 44 -46 45 -82 34 -44 -13 -91 -5 -118 20 -19 18 -26 34 -33 83 -2 13 -18 24 -45 33 -23 8 -56 30 -72 49 -87 99 -47 247 77 284 15 5 173 9 352 9 296 1 329 -1 365 -18z"/>
  </g>
</svg>
