<?xml version="1.0" standalone="no"?>
<!DOCTYPE svg PUBLIC "-//W3C//DTD SVG 20010904//EN"
 "http://www.w3.org/TR/2001/REC-SVG-20010904/DTD/svg10.dtd">
<svg version="1.0" xmlns="http://www.w3.org/2000/svg"
 width="16.000000pt" height="16.000000pt" viewBox="0 0 16.000000 16.000000"
 preserveAspectRatio="xMidYMid meet">
<metadata>
Created by potrace 1.11, written by Peter Selinger 2001-2013
</metadata>
<g transform="translate(0.000000,16.000000) scale(0.005333,-0.005333)"
fill="#000000" stroke="none">
<path d="M1416 2732 c-28 -66 -159 -194 -341 -332 -242 -182 -348 -280 -450
-415 -358 -474 -267 -1136 213 -1548 128 -109 357 -213 518 -233 72 -9 231 -9
299 0 445 59 823 417 924 876 19 88 23 116 25 216 4 130 -12 252 -45 360 -51
165 -131 296 -262 428 -109 110 -191 171 -435 328 -101 64 -212 138 -245 164
-67 51 -140 132 -160 176 -6 15 -14 28 -17 28 -3 0 -14 -21 -24 -48z m209
-675 c43 -25 50 -26 65 -12 9 8 19 15 22 15 3 0 6 -33 5 -72 l0 -73 -69 1
c-75 1 -86 5 -63 24 22 18 19 27 -16 39 -82 29 -138 8 -228 -83 -62 -63 -63
-65 -52 -97 36 -103 -12 -212 -113 -253 -125 -52 -261 42 -259 180 1 131 128
224 250 181 l41 -14 74 75 c90 92 147 120 234 118 44 -2 73 -9 109 -29z m354
-152 c75 -38 114 -144 85 -228 l-14 -39 74 -74 c88 -88 117 -144 118 -224 1
-44 -5 -72 -26 -115 -27 -54 -27 -57 -10 -76 9 -10 13 -19 8 -20 -62 -3 -134
-3 -135 1 -5 21 -3 140 2 140 4 0 12 -7 19 -15 11 -14 14 -13 25 2 19 27 27
77 19 119 -5 29 -25 56 -83 116 l-76 78 -39 -14 c-79 -27 -164 -1 -220 67 -24
30 -31 49 -34 97 -12 161 142 260 287 185z m-1030 -422 c0 -40 -3 -73 -6 -73
-4 0 -15 7 -24 16 -17 16 -19 15 -28 -8 -19 -49 -21 -98 -7 -133 8 -19 46 -66
84 -105 62 -64 72 -71 91 -61 11 7 42 14 67 16 89 9 176 -53 199 -143 45 -172
-143 -307 -291 -209 -74 49 -106 149 -74 231 10 29 8 32 -64 105 -96 98 -123
155 -117 241 3 40 28 108 48 131 11 13 10 18 -7 34 -11 10 -18 21 -16 24 3 4
36 6 75 6 l70 0 0 -72z m1048 -352 c50 -23 99 -86 108 -140 8 -47 -9 -113 -38
-153 -44 -60 -144 -89 -219 -64 l-36 13 -72 -72 c-91 -92 -144 -119 -227 -118
-48 0 -75 7 -115 27 l-51 27 -22 -21 -22 -21 -1 76 c-1 41 3 75 8 76 6 0 30 1
55 1 92 0 90 1 71 -21 -17 -19 -17 -20 14 -36 37 -19 104 -18 140 4 14 8 55
43 91 79 l67 64 -14 34 c-50 120 45 263 176 263 25 0 64 -8 87 -18z"/>
<path d="M1073 1815 c-117 -49 -54 -220 67 -181 41 13 76 72 66 110 -15 60
-78 94 -133 71z"/>
<path d="M1845 1831 c-73 -31 -82 -141 -14 -176 68 -36 136 -2 146 71 4 35 1
46 -23 73 -30 34 -74 46 -109 32z"/>
<path d="M1070 1010 c-24 -26 -28 -37 -25 -72 6 -56 30 -81 87 -92 32 -5 85
25 99 58 7 14 9 40 5 60 -15 77 -112 104 -166 46z"/>
<path d="M1872 1045 c-30 -13 -60 -57 -56 -82 1 -7 2 -21 3 -32 2 -34 50 -71
93 -71 86 0 131 104 72 164 -15 14 -32 26 -38 27 -6 0 -18 2 -27 4 -8 1 -29
-3 -47 -10z"/>
</g>
</svg>
